<svg width="158" height="64" viewBox="0 0 158 64" fill="none" xmlns="http://www.w3.org/2000/svg">
<path d="M3.74136 45.2533C3.68579 44.4753 3.60244 43.2528 3.4913 41.5857C3.43573 39.9187 3.3246 38.0571 3.15789 36.001C3.04675 33.8894 2.90783 31.6666 2.74112 29.3327C2.62998 26.9988 2.49106 24.8039 2.32435 22.7478C2.21321 20.6917 2.12986 18.8302 2.07429 17.1631C2.01872 15.4405 1.96315 14.1902 1.90758 13.4122C1.74088 11.1339 1.49081 8.93888 1.1574 6.82725C0.879554 4.66005 0.740631 2.46507 0.740631 0.24231C1.46303 0.24231 2.15764 0.464586 2.82447 0.909139C3.4913 1.29812 3.79693 1.90938 3.74136 2.74292C3.8525 3.74316 3.99143 5.27131 4.15813 7.32737C4.38041 9.38343 4.60269 11.7173 4.82496 14.3291C5.10281 16.9408 5.38065 19.6915 5.6585 22.5811C5.99191 25.4707 6.26976 28.2214 6.49204 30.8331C6.76988 33.3893 6.99216 35.7232 7.15887 37.8348C7.38114 39.8909 7.54785 41.419 7.65899 42.4193V42.9194C7.65899 43.1972 7.57563 43.5307 7.40893 43.9196C7.29779 44.2531 7.13108 44.6143 6.9088 45.0032C6.68653 45.3922 6.43647 45.7256 6.15862 46.0035C5.88078 46.2258 5.57515 46.3369 5.24173 46.3369C4.5749 46.3369 4.07478 45.9757 3.74136 45.2533Z" fill="#FDD888"/>
<path d="M11.4099 26.082C11.4099 22.4144 11.4933 19.0802 11.66 16.0795C11.8267 13.0788 12.4101 10.5226 13.4104 8.41097C14.4106 6.29934 15.9944 4.66005 18.1616 3.4931C20.3287 2.32615 23.4128 1.74268 27.4138 1.74268C31.8038 1.74268 35.2213 2.85406 37.6663 5.07682C40.1669 7.24402 41.4172 10.6337 41.4172 15.246C41.4172 17.1909 41.2505 19.3025 40.9171 21.5809C40.6393 23.8036 40.1669 26.082 39.5001 28.4159C38.8333 30.6942 37.9719 32.917 36.9161 35.0841C35.8603 37.2513 34.5822 39.1685 33.0819 40.8356C31.5815 42.5026 29.8311 43.8363 27.8306 44.8365C25.8857 45.8368 23.6629 46.3369 21.1623 46.3369C19.4952 46.3369 18.106 46.0035 16.9946 45.3367C15.8832 44.6143 14.9663 43.6696 14.2439 42.5026C13.5215 41.3357 12.9658 40.0298 12.5769 38.585C12.1879 37.1402 11.91 35.6676 11.7433 34.1673C11.5766 32.6669 11.4655 31.2221 11.4099 29.8329C11.4099 28.4436 11.4099 27.1933 11.4099 26.082ZM14.3273 26.9988C14.3273 28.2214 14.3829 29.7217 14.494 31.4999C14.6051 33.2782 14.883 35.0008 15.3275 36.6679C15.7721 38.2794 16.4667 39.6686 17.4114 40.8356C18.356 41.9469 19.6897 42.5026 21.4123 42.5026C24.4131 42.5026 26.997 41.6969 29.1642 40.0854C31.387 38.4183 33.1652 36.3345 34.4989 33.8338C35.8881 31.3332 36.9161 28.6381 37.583 25.7485C38.2498 22.8589 38.5832 20.1638 38.5832 17.6632C38.5832 15.7183 38.4443 13.9401 38.1664 12.3286C37.8886 10.7171 37.3607 9.35565 36.5827 8.24426C35.8048 7.07731 34.6934 6.18821 33.2486 5.57695C31.8593 4.96568 30.0811 4.66005 27.9139 4.66005C24.5798 4.66005 21.9958 5.2991 20.162 6.57719C18.3838 7.85528 17.0502 9.57792 16.1611 11.7451C15.272 13.8567 14.7441 16.2462 14.5773 18.9135C14.4106 21.5809 14.3273 24.276 14.3273 26.9988Z" fill="#FDD888"/>
<path d="M51.253 49.0876C51.253 46.8648 51.0585 45.0866 50.6695 43.7529C50.3361 42.4193 49.9193 41.3912 49.4192 40.6688C48.9191 39.8909 48.3634 39.363 47.7521 39.0851C47.1409 38.7517 46.5852 38.5016 46.085 38.3349C45.5849 38.1127 45.1404 37.8626 44.7514 37.5848C44.418 37.3069 44.2513 36.8346 44.2513 36.1677C44.2513 34.8897 44.5291 34.1395 45.0848 33.9172C45.6961 33.6949 46.5852 33.5838 47.7521 33.5838C49.2525 33.5838 50.475 34.1117 51.4197 35.1675C52.4199 36.2233 53.1701 37.5014 53.6702 39.0018C54.2259 40.5021 54.5871 42.0859 54.7538 43.7529C54.9761 45.3644 55.0872 46.8092 55.0872 48.0873C55.0872 49.2543 55.0039 50.6991 54.8372 52.4217C54.6705 54.1444 54.3371 55.8114 53.8369 57.4229C53.3368 59.0344 52.6144 60.3959 51.6697 61.5073C50.7806 62.6742 49.5581 63.2577 48.0022 63.2577C48.0022 62.0352 48.1689 60.8682 48.5023 59.7568C48.8357 58.6455 49.1969 57.5341 49.5859 56.4227C50.0304 55.3113 50.4194 54.1444 50.7528 52.9218C51.0863 51.7549 51.253 50.4768 51.253 49.0876Z" fill="#FDD888"/>
<path d="M59.1716 26.082C59.1716 22.4144 59.2549 19.0802 59.4216 16.0795C59.5883 13.0788 60.1718 10.5226 61.1721 8.41097C62.1723 6.29934 63.756 4.66005 65.9232 3.4931C68.0904 2.32615 71.1745 1.74268 75.1755 1.74268C79.5654 1.74268 82.9829 2.85406 85.428 5.07682C87.9286 7.24402 89.1789 10.6337 89.1789 15.246C89.1789 17.1909 89.0122 19.3025 88.6788 21.5809C88.4009 23.8036 87.9286 26.082 87.2618 28.4159C86.5949 30.6942 85.7336 32.917 84.6778 35.0841C83.622 37.2513 82.3439 39.1685 80.8435 40.8356C79.3432 42.5026 77.5927 43.8363 75.5922 44.8365C73.6473 45.8368 71.4246 46.3369 68.9239 46.3369C67.2569 46.3369 65.8676 46.0035 64.7563 45.3367C63.6449 44.6143 62.728 43.6696 62.0056 42.5026C61.2832 41.3357 60.7275 40.0298 60.3385 38.585C59.9495 37.1402 59.6717 35.6676 59.505 34.1673C59.3383 32.6669 59.2271 31.2221 59.1716 29.8329C59.1716 28.4436 59.1716 27.1933 59.1716 26.082ZM62.0889 26.9988C62.0889 28.2214 62.1445 29.7217 62.2557 31.4999C62.3668 33.2782 62.6446 35.0008 63.0892 36.6679C63.5337 38.2794 64.2284 39.6686 65.173 40.8356C66.1177 41.9469 67.4514 42.5026 69.174 42.5026C72.1747 42.5026 74.7587 41.6969 76.9259 40.0854C79.1487 38.4183 80.9269 36.3345 82.2605 33.8338C83.6498 31.3332 84.6778 28.6381 85.3446 25.7485C86.0115 22.8589 86.3449 20.1638 86.3449 17.6632C86.3449 15.7183 86.2059 13.9401 85.9281 12.3286C85.6503 10.7171 85.1224 9.35565 84.3444 8.24426C83.5664 7.07731 82.455 6.18821 81.0102 5.57695C79.621 4.96568 77.8428 4.66005 75.6756 4.66005C72.3415 4.66005 69.7575 5.2991 67.9237 6.57719C66.1455 7.85528 64.8118 9.57792 63.9227 11.7451C63.0336 13.8567 62.5057 16.2462 62.339 18.9135C62.1723 21.5809 62.0889 24.276 62.0889 26.9988Z" fill="#FDD888"/>
<path d="M93.0132 26.082C93.0132 22.4144 93.0965 19.0802 93.2632 16.0795C93.4299 13.0788 94.0134 10.5226 95.0137 8.41097C96.0139 6.29934 97.5976 4.66005 99.7648 3.4931C101.932 2.32615 105.016 1.74268 109.017 1.74268C113.407 1.74268 116.825 2.85406 119.27 5.07682C121.77 7.24402 123.02 10.6337 123.02 15.246C123.02 17.1909 122.854 19.3025 122.52 21.5809C122.243 23.8036 121.77 26.082 121.103 28.4159C120.437 30.6942 119.575 32.917 118.519 35.0841C117.464 37.2513 116.185 39.1685 114.685 40.8356C113.185 42.5026 111.434 43.8363 109.434 44.8365C107.489 45.8368 105.266 46.3369 102.766 46.3369C101.098 46.3369 99.7092 46.0035 98.5979 45.3367C97.4865 44.6143 96.5696 43.6696 95.8472 42.5026C95.1248 41.3357 94.5691 40.0298 94.1801 38.585C93.7911 37.1402 93.5133 35.6676 93.3466 34.1673C93.1799 32.6669 93.0687 31.2221 93.0132 29.8329C93.0132 28.4436 93.0132 27.1933 93.0132 26.082ZM95.9305 26.9988C95.9305 28.2214 95.9861 29.7217 96.0973 31.4999C96.2084 33.2782 96.4862 35.0008 96.9308 36.6679C97.3753 38.2794 98.07 39.6686 99.0146 40.8356C99.9593 41.9469 101.293 42.5026 103.016 42.5026C106.016 42.5026 108.6 41.6969 110.768 40.0854C112.99 38.4183 114.768 36.3345 116.102 33.8338C117.491 31.3332 118.519 28.6381 119.186 25.7485C119.853 22.8589 120.186 20.1638 120.186 17.6632C120.186 15.7183 120.048 13.9401 119.77 12.3286C119.492 10.7171 118.964 9.35565 118.186 8.24426C117.408 7.07731 116.297 6.18821 114.852 5.57695C113.463 4.96568 111.684 4.66005 109.517 4.66005C106.183 4.66005 103.599 5.2991 101.765 6.57719C99.9871 7.85528 98.6534 9.57792 97.7643 11.7451C96.8752 13.8567 96.3473 16.2462 96.1806 18.9135C96.0139 21.5809 95.9305 24.276 95.9305 26.9988Z" fill="#FDD888"/>
<path d="M126.855 26.082C126.855 22.4144 126.938 19.0802 127.105 16.0795C127.272 13.0788 127.855 10.5226 128.855 8.41097C129.855 6.29934 131.439 4.66005 133.606 3.4931C135.774 2.32615 138.858 1.74268 142.859 1.74268C147.249 1.74268 150.666 2.85406 153.111 5.07682C155.612 7.24402 156.862 10.6337 156.862 15.246C156.862 17.1909 156.695 19.3025 156.362 21.5809C156.084 23.8036 155.612 26.082 154.945 28.4159C154.278 30.6942 153.417 32.917 152.361 35.0841C151.305 37.2513 150.027 39.1685 148.527 40.8356C147.026 42.5026 145.276 43.8363 143.275 44.8365C141.331 45.8368 139.108 46.3369 136.607 46.3369C134.94 46.3369 133.551 46.0035 132.439 45.3367C131.328 44.6143 130.411 43.6696 129.689 42.5026C128.966 41.3357 128.411 40.0298 128.022 38.585C127.633 37.1402 127.355 35.6676 127.188 34.1673C127.021 32.6669 126.91 31.2221 126.855 29.8329C126.855 28.4436 126.855 27.1933 126.855 26.082ZM129.772 26.9988C129.772 28.2214 129.828 29.7217 129.939 31.4999C130.05 33.2782 130.328 35.0008 130.772 36.6679C131.217 38.2794 131.912 39.6686 132.856 40.8356C133.801 41.9469 135.135 42.5026 136.857 42.5026C139.858 42.5026 142.442 41.6969 144.609 40.0854C146.832 38.4183 148.61 36.3345 149.944 33.8338C151.333 31.3332 152.361 28.6381 153.028 25.7485C153.695 22.8589 154.028 20.1638 154.028 17.6632C154.028 15.7183 153.889 13.9401 153.611 12.3286C153.333 10.7171 152.806 9.35565 152.028 8.24426C151.25 7.07731 150.138 6.18821 148.693 5.57695C147.304 4.96568 145.526 4.66005 143.359 4.66005C140.025 4.66005 137.441 5.2991 135.607 6.57719C133.829 7.85528 132.495 9.57792 131.606 11.7451C130.717 13.8567 130.189 16.2462 130.022 18.9135C129.855 21.5809 129.772 24.276 129.772 26.9988Z" fill="#FDD888"/>
</svg>
