<svg width="188" height="65" viewBox="0 0 188 65" fill="none" xmlns="http://www.w3.org/2000/svg">
<path d="M17.8876 8.98579C17.8876 8.76184 17.8596 8.42592 17.8036 7.97804C17.8036 7.53015 17.7756 7.05426 17.7196 6.55039C17.7196 5.99052 17.6916 5.48665 17.6357 5.03876C17.6357 4.59087 17.6357 4.25495 17.6357 4.03101C17.4677 3.47115 17.2158 3.16322 16.8798 3.10723C16.5439 3.05125 16.152 3.02325 15.7041 3.02325C14.5844 3.02325 13.5767 3.30319 12.6809 3.86305C11.8411 4.36693 11.0853 5.03876 10.4134 5.87855C9.7416 6.66236 9.09776 7.53015 8.48191 8.48191C7.92205 9.37769 7.3342 10.2455 6.71835 11.0853C6.1025 11.8691 5.45866 12.5409 4.78682 13.1008C4.11499 13.6046 3.33118 13.8566 2.4354 13.8566C2.15547 13.8566 1.84755 13.8566 1.51163 13.8566C1.2317 13.8006 0.951766 13.7446 0.671835 13.6886C0.44789 13.5767 0.251938 13.3807 0.0839793 13.1008C-0.0279931 12.8208 -0.0279931 12.4289 0.0839793 11.9251C1.14772 10.2455 2.18346 8.70586 3.19121 7.3062C4.25495 5.85056 5.40267 4.59087 6.63437 3.52713C7.86606 2.46339 9.26572 1.6236 10.8333 1.00775C12.4009 0.335919 14.2205 0 16.292 0C18.3635 0 19.7631 0.671835 20.491 2.0155C21.2188 3.35917 21.5827 5.01077 21.5827 6.97028C21.5827 9.7696 21.1628 12.7089 20.323 15.7881C19.5392 18.8114 18.5314 21.8346 17.2997 24.8579C16.124 27.8252 14.8363 30.7084 13.4367 33.5078C12.093 36.3071 10.8893 38.8264 9.82558 41.0659V42.0736L34.1796 34.2636C34.2356 34.2636 34.3755 34.2636 34.5995 34.2636C34.8794 34.2076 35.0754 34.1796 35.1873 34.1796C35.5792 34.1796 35.9711 34.2356 36.363 34.3475C36.755 34.4035 37.0069 34.6835 37.1189 35.1873C37.1749 35.4113 37.2308 35.7192 37.2868 36.1111C37.3428 36.503 37.3988 36.8949 37.4548 37.2868C37.5108 37.7347 37.5388 38.1826 37.5388 38.6305H28.385L5.79457 47.6163C5.79457 44.2571 6.41042 41.0099 7.64212 37.8747C8.9298 34.7394 10.3295 31.6042 11.8411 28.469C13.3527 25.2778 14.7244 22.1146 15.9561 18.9793C17.2438 15.7881 17.8876 12.4569 17.8876 8.98579Z" fill="#FDD888"/>
<path d="M40.8979 27.5452C40.8979 23.8501 40.9819 20.491 41.1499 17.4677C41.3178 14.4444 41.9057 11.8691 42.9134 9.7416C43.9212 7.61413 45.5168 5.96253 47.7003 4.78682C49.8837 3.61111 52.991 3.02325 57.022 3.02325C61.4449 3.02325 64.888 4.14298 67.3514 6.38243C69.8708 8.56589 71.1305 11.9811 71.1305 16.6279C71.1305 18.5874 70.9625 20.7149 70.6266 23.0103C70.3467 25.2498 69.8708 27.5452 69.199 29.8966C68.5271 32.1921 67.6593 34.4315 66.5956 36.615C65.5319 38.7985 64.2442 40.73 62.7326 42.4096C61.2209 44.0892 59.4574 45.4328 57.4419 46.4406C55.4823 47.4483 53.2429 47.9522 50.7235 47.9522C49.0439 47.9522 47.6443 47.6163 46.5245 46.9444C45.4048 46.2166 44.4811 45.2649 43.7532 44.0891C43.0254 42.9134 42.4655 41.5978 42.0736 40.1421C41.6817 38.6865 41.4018 37.2028 41.2339 35.6912C41.0659 34.1796 40.9539 32.7239 40.8979 31.3243C40.8979 29.9246 40.8979 28.6649 40.8979 27.5452ZM43.8372 28.469C43.8372 29.7007 43.8932 31.2123 44.0052 33.0039C44.1171 34.7954 44.3971 36.531 44.845 38.2106C45.2929 39.8342 45.9927 41.2339 46.9444 42.4096C47.8962 43.5293 49.2399 44.0891 50.9755 44.0891C53.9987 44.0891 56.6021 43.2774 58.7855 41.6538C61.025 39.9742 62.8165 37.8747 64.1602 35.3553C65.5599 32.8359 66.5956 30.1206 67.2674 27.2093C67.9393 24.298 68.2752 21.5827 68.2752 19.0633C68.2752 17.1038 68.1352 15.3122 67.8553 13.6886C67.5754 12.065 67.0435 10.6934 66.2597 9.57364C65.4759 8.39793 64.3562 7.50215 62.9005 6.88631C61.5009 6.27046 59.7093 5.96253 57.5258 5.96253C54.1667 5.96253 51.5633 6.60637 49.7158 7.89406C47.9242 9.18174 46.5805 10.9173 45.6848 13.1008C44.789 15.2282 44.2571 17.6357 44.0891 20.323C43.9212 23.0103 43.8372 25.7257 43.8372 28.469Z" fill="#FDD888"/>
<path d="M81.0401 50.7235C81.0401 48.4841 80.8441 46.6925 80.4522 45.3488C80.1163 44.0052 79.6964 42.9694 79.1925 42.2416C78.6886 41.4578 78.1288 40.9259 77.5129 40.646C76.8971 40.3101 76.3372 40.0581 75.8333 39.8902C75.3295 39.6662 74.8816 39.4143 74.4897 39.1344C74.1537 38.8544 73.9858 38.3786 73.9858 37.7067C73.9858 36.419 74.2657 35.6632 74.8256 35.4393C75.4414 35.2153 76.3372 35.1034 77.5129 35.1034C79.0245 35.1034 80.2562 35.6352 81.208 36.699C82.2158 37.7627 82.9716 39.0504 83.4755 40.562C84.0353 42.0736 84.3992 43.6692 84.5672 45.3488C84.7911 46.9724 84.9031 48.4281 84.9031 49.7158C84.9031 50.8915 84.8191 52.3471 84.6512 54.0827C84.4832 55.8183 84.1473 57.4978 83.6434 59.1214C83.1395 60.745 82.4117 62.1167 81.46 63.2364C80.5642 64.4121 79.3325 65 77.7649 65C77.7649 63.7683 77.9328 62.5926 78.2687 61.4729C78.6046 60.3531 78.9686 59.2334 79.3605 58.1137C79.8084 56.994 80.2003 55.8183 80.5362 54.5866C80.8721 53.4109 81.0401 52.1232 81.0401 50.7235Z" fill="#FDD888"/>
<path d="M89.0181 27.5452C89.0181 23.8501 89.1021 20.491 89.27 17.4677C89.438 14.4444 90.0258 11.8691 91.0336 9.7416C92.0413 7.61413 93.6369 5.96253 95.8204 4.78682C98.0039 3.61111 101.111 3.02325 105.142 3.02325C109.565 3.02325 113.008 4.14298 115.472 6.38243C117.991 8.56589 119.251 11.9811 119.251 16.6279C119.251 18.5874 119.083 20.7149 118.747 23.0103C118.467 25.2498 117.991 27.5452 117.319 29.8966C116.647 32.1921 115.779 34.4315 114.716 36.615C113.652 38.7985 112.364 40.73 110.853 42.4096C109.341 44.0892 107.578 45.4328 105.562 46.4406C103.602 47.4483 101.363 47.9522 98.8437 47.9522C97.1641 47.9522 95.7644 47.6163 94.6447 46.9444C93.525 46.2166 92.6012 45.2649 91.8734 44.0891C91.1456 42.9134 90.5857 41.5978 90.1938 40.1421C89.8019 38.6865 89.522 37.2028 89.354 35.6912C89.186 34.1796 89.0741 32.7239 89.0181 31.3243C89.0181 29.9246 89.0181 28.6649 89.0181 27.5452ZM91.9574 28.469C91.9574 29.7007 92.0133 31.2123 92.1253 33.0039C92.2373 34.7954 92.5172 36.531 92.9651 38.2106C93.413 39.8342 94.1128 41.2339 95.0646 42.4096C96.0164 43.5293 97.36 44.0891 99.0956 44.0891C102.119 44.0891 104.722 43.2774 106.906 41.6538C109.145 39.9742 110.937 37.8747 112.28 35.3553C113.68 32.8359 114.716 30.1206 115.388 27.2093C116.059 24.298 116.395 21.5827 116.395 19.0633C116.395 17.1038 116.255 15.3122 115.975 13.6886C115.696 12.065 115.164 10.6934 114.38 9.57364C113.596 8.39793 112.476 7.50215 111.021 6.88631C109.621 6.27046 107.829 5.96253 105.646 5.96253C102.287 5.96253 99.6835 6.60637 97.8359 7.89406C96.0444 9.18174 94.7007 10.9173 93.8049 13.1008C92.9091 15.2282 92.3773 17.6357 92.2093 20.323C92.0413 23.0103 91.9574 25.7257 91.9574 28.469Z" fill="#FDD888"/>
<path d="M123.114 27.5452C123.114 23.8501 123.198 20.491 123.366 17.4677C123.534 14.4444 124.121 11.8691 125.129 9.7416C126.137 7.61413 127.733 5.96253 129.916 4.78682C132.099 3.61111 135.207 3.02325 139.238 3.02325C143.661 3.02325 147.104 4.14298 149.567 6.38243C152.087 8.56589 153.346 11.9811 153.346 16.6279C153.346 18.5874 153.178 20.7149 152.842 23.0103C152.562 25.2498 152.087 27.5452 151.415 29.8966C150.743 32.1921 149.875 34.4315 148.811 36.615C147.748 38.7985 146.46 40.73 144.948 42.4096C143.437 44.0892 141.673 45.4328 139.658 46.4406C137.698 47.4483 135.459 47.9522 132.939 47.9522C131.26 47.9522 129.86 47.6163 128.74 46.9444C127.621 46.2166 126.697 45.2649 125.969 44.0891C125.241 42.9134 124.681 41.5978 124.289 40.1421C123.898 38.6865 123.618 37.2028 123.45 35.6912C123.282 34.1796 123.17 32.7239 123.114 31.3243C123.114 29.9246 123.114 28.6649 123.114 27.5452ZM126.053 28.469C126.053 29.7007 126.109 31.2123 126.221 33.0039C126.333 34.7954 126.613 36.531 127.061 38.2106C127.509 39.8342 128.208 41.2339 129.16 42.4096C130.112 43.5293 131.456 44.0891 133.191 44.0891C136.214 44.0891 138.818 43.2774 141.001 41.6538C143.241 39.9742 145.032 37.8747 146.376 35.3553C147.776 32.8359 148.811 30.1206 149.483 27.2093C150.155 24.298 150.491 21.5827 150.491 19.0633C150.491 17.1038 150.351 15.3122 150.071 13.6886C149.791 12.065 149.259 10.6934 148.475 9.57364C147.692 8.39793 146.572 7.50215 145.116 6.88631C143.717 6.27046 141.925 5.96253 139.742 5.96253C136.382 5.96253 133.779 6.60637 131.932 7.89406C130.14 9.18174 128.796 10.9173 127.901 13.1008C127.005 15.2282 126.473 17.6357 126.305 20.323C126.137 23.0103 126.053 25.7257 126.053 28.469Z" fill="#FDD888"/>
<path d="M157.209 27.5452C157.209 23.8501 157.293 20.491 157.461 17.4677C157.629 14.4444 158.217 11.8691 159.225 9.7416C160.233 7.61413 161.828 5.96253 164.012 4.78682C166.195 3.61111 169.302 3.02325 173.333 3.02325C177.756 3.02325 181.199 4.14298 183.663 6.38243C186.182 8.56589 187.442 11.9811 187.442 16.6279C187.442 18.5874 187.274 20.7149 186.938 23.0103C186.658 25.2498 186.182 27.5452 185.51 29.8966C184.839 32.1921 183.971 34.4315 182.907 36.615C181.843 38.7985 180.556 40.73 179.044 42.4096C177.532 44.0892 175.769 45.4328 173.753 46.4406C171.794 47.4483 169.554 47.9522 167.035 47.9522C165.355 47.9522 163.956 47.6163 162.836 46.9444C161.716 46.2166 160.792 45.2649 160.065 44.0891C159.337 42.9134 158.777 41.5978 158.385 40.1421C157.993 38.6865 157.713 37.2028 157.545 35.6912C157.377 34.1796 157.265 32.7239 157.209 31.3243C157.209 29.9246 157.209 28.6649 157.209 27.5452ZM160.149 28.469C160.149 29.7007 160.205 31.2123 160.317 33.0039C160.429 34.7954 160.708 36.531 161.156 38.2106C161.604 39.8342 162.304 41.2339 163.256 42.4096C164.208 43.5293 165.551 44.0891 167.287 44.0891C170.31 44.0891 172.913 43.2774 175.097 41.6538C177.336 39.9742 179.128 37.8747 180.472 35.3553C181.871 32.8359 182.907 30.1206 183.579 27.2093C184.251 24.298 184.587 21.5827 184.587 19.0633C184.587 17.1038 184.447 15.3122 184.167 13.6886C183.887 12.065 183.355 10.6934 182.571 9.57364C181.787 8.39793 180.668 7.50215 179.212 6.88631C177.812 6.27046 176.021 5.96253 173.837 5.96253C170.478 5.96253 167.875 6.60637 166.027 7.89406C164.236 9.18174 162.892 10.9173 161.996 13.1008C161.1 15.2282 160.568 17.6357 160.401 20.323C160.233 23.0103 160.149 25.7257 160.149 28.469Z" fill="#FDD888"/>
</svg>
