<svg width="185" height="66" viewBox="0 0 185 66" fill="none" xmlns="http://www.w3.org/2000/svg">
<path d="M18.0777 10.2876C18.0777 10.0665 18.05 9.73484 17.9947 9.29267C17.9947 8.85049 17.9671 8.38068 17.9118 7.88323C17.9118 7.33051 17.8842 6.83306 17.8289 6.39088C17.8289 5.9487 17.8289 5.61707 17.8289 5.39599C17.6631 4.84326 17.4144 4.53926 17.0828 4.48399C16.7511 4.42872 16.3642 4.40108 15.922 4.40108C14.8166 4.40108 13.8217 4.67745 12.9373 5.23017C12.1083 5.72762 11.3621 6.39088 10.6988 7.21996C10.0356 7.99377 9.39993 8.85049 8.79194 9.79012C8.23922 10.6745 7.65886 11.5312 7.05087 12.3603C6.44287 13.1341 5.80724 13.7973 5.14398 14.3501C4.48071 14.8475 3.7069 15.0962 2.82255 15.0962C2.54619 15.0962 2.24219 15.0962 1.91056 15.0962C1.6342 15.041 1.35784 14.9857 1.08148 14.9304C0.86039 14.8199 0.666937 14.6264 0.501121 14.3501C0.390577 14.0737 0.390577 13.6868 0.501121 13.1894C1.55129 11.5312 2.57382 10.0112 3.56872 8.6294C4.61889 7.19233 5.75197 5.94871 6.96796 4.89853C8.18394 3.84836 9.56575 3.01929 11.1134 2.41129C12.661 1.74803 14.4573 1.41639 16.5024 1.41639C18.5475 1.41639 19.9293 2.07966 20.6478 3.40619C21.3663 4.73272 21.7256 6.36325 21.7256 8.29777C21.7256 11.0614 21.3111 13.9632 20.482 17.0031C19.7082 19.9878 18.7133 22.9725 17.4973 25.9572C16.3366 28.8866 15.0653 31.7331 13.6835 34.4968C12.357 37.2604 11.1686 39.7476 10.1185 41.9585V42.9534L34.1618 35.2429C34.2171 35.2429 34.3553 35.2429 34.5764 35.2429C34.8527 35.1877 35.0462 35.16 35.1567 35.16C35.5436 35.16 35.9305 35.2153 36.3174 35.3258C36.7044 35.3811 36.9531 35.6575 37.0636 36.1549C37.1189 36.376 37.1742 36.68 37.2294 37.0669C37.2847 37.4538 37.34 37.8407 37.3953 38.2276C37.4505 38.6698 37.4782 39.112 37.4782 39.5541H28.4412L6.13888 48.4253C6.13888 45.109 6.74687 41.9032 7.96286 38.808C9.23411 35.7127 10.6159 32.6175 12.1083 29.5223C13.6006 26.3718 14.9548 23.2489 16.1708 20.1536C17.442 17.0031 18.0777 13.7144 18.0777 10.2876Z" fill="#FDD888"/>
<path d="M48.505 45.3577C48.505 44.5286 48.6431 43.7272 48.9195 42.9534C49.1959 42.1243 49.7209 41.461 50.4947 40.9636C50.6606 41.8479 50.8264 42.5665 50.9922 43.1192C51.2133 43.6167 51.462 44.0036 51.7384 44.2799C52.07 44.501 52.4845 44.6668 52.982 44.7774C53.4794 44.8879 54.1151 44.9432 54.8889 44.9432C56.2154 44.9432 57.5972 44.6392 59.0343 44.0312C60.4714 43.4232 61.7703 42.5941 62.931 41.5439C64.0917 40.4938 65.0313 39.3054 65.7499 37.9789C66.5237 36.5971 66.9106 35.1877 66.9106 33.7506C66.9106 31.8161 66.4684 30.1579 65.584 28.7761C64.6997 27.3943 63.5666 26.2336 62.1848 25.2939C60.803 24.3543 59.2554 23.6911 57.5419 23.3042C55.8285 22.862 54.1151 22.6409 52.4016 22.6409C51.5173 22.6409 50.6606 22.7514 49.8315 22.9725C49.0577 23.1383 48.2562 23.3594 47.4271 23.6358C46.6533 23.9121 45.8795 24.1609 45.1057 24.382C44.3872 24.5478 43.5857 24.6307 42.7014 24.6307C42.3145 24.6307 41.9552 24.603 41.6236 24.5478C41.2919 24.4925 41.0709 24.2161 40.9603 23.7187C40.905 23.2212 40.8221 22.3369 40.7116 21.0656C40.6563 19.7944 40.5734 18.4402 40.4629 17.0031C40.3523 15.5661 40.2418 14.2119 40.1312 12.9406C40.0207 11.6694 39.9378 10.785 39.8825 10.2876V9.12685C39.8825 8.73995 39.9101 8.40832 39.9654 8.13195C40.0207 7.80032 40.3523 7.52396 40.9603 7.30287C42.2316 7.19233 43.5857 7.05415 45.0228 6.88833C46.5152 6.66724 48.0075 6.41852 49.4999 6.14216C51.0475 5.8658 52.5398 5.50653 53.9769 5.06435C55.4692 4.62217 56.8787 4.12473 58.2052 3.572C58.2052 3.51673 58.3434 3.40619 58.6198 3.24037C58.9514 3.01928 59.283 2.7982 59.6147 2.57711C59.9463 2.35602 60.2503 2.16257 60.5266 1.99675C60.803 1.77566 60.9965 1.63748 61.107 1.58221C61.3281 1.41639 61.6874 1.22294 62.1848 1.00185C62.6823 0.725489 62.9586 0.587311 63.0139 0.587311C64.0088 0.587311 64.5615 0.808399 64.672 1.25058C64.8379 1.69275 64.9208 2.24547 64.9208 2.90874C64.9208 3.35092 64.8931 3.84836 64.8379 4.40108C64.8379 4.89853 64.5339 5.23017 63.9259 5.39599L44.7741 10.4534V20.4853C46.2664 20.4853 47.9246 20.4853 49.7486 20.4853C51.5726 20.43 53.4242 20.4853 55.3034 20.6511C57.1827 20.7616 58.979 21.0656 60.6925 21.5631C62.4612 22.0053 64.0088 22.6962 65.3353 23.6358C66.6618 24.5201 67.7396 25.7361 68.5687 27.2837C69.3978 28.8314 69.8124 30.7659 69.8124 33.0873C69.8124 35.2429 69.3702 37.2604 68.4858 39.1396C67.6015 41.0189 66.4131 42.677 64.9208 44.1141C63.4284 45.4959 61.715 46.629 59.7805 47.5133C57.9012 48.3424 55.9114 48.757 53.8111 48.757C53.2584 48.757 52.6504 48.7293 51.9871 48.674C51.3238 48.5635 50.7435 48.3977 50.246 48.1766C49.7486 47.9002 49.334 47.5686 49.0024 47.1817C48.6708 46.7395 48.505 46.1315 48.505 45.3577Z" fill="#FDD888"/>
<path d="M79.9272 51.4929C79.9272 49.282 79.7337 47.5133 79.3468 46.1868C79.0152 44.8603 78.6006 43.8377 78.1032 43.1192C77.6057 42.3454 77.053 41.8203 76.445 41.5439C75.837 41.2123 75.2843 40.9636 74.7868 40.7978C74.2894 40.5767 73.8472 40.328 73.4603 40.0516C73.1287 39.7752 72.9629 39.3054 72.9629 38.6422C72.9629 37.3709 73.2392 36.6247 73.7919 36.4036C74.3999 36.1826 75.2843 36.072 76.445 36.072C77.9374 36.072 79.1533 36.5971 80.093 37.6473C81.0879 38.6974 81.834 39.9687 82.3315 41.461C82.8842 42.9534 83.2435 44.5286 83.4093 46.1868C83.6304 47.7897 83.7409 49.2268 83.7409 50.498C83.7409 51.6587 83.658 53.0958 83.4922 54.8093C83.3264 56.5227 82.9948 58.1809 82.4973 59.7837C81.9999 61.3866 81.2813 62.7408 80.3417 63.8462C79.4573 65.007 78.2414 65.5873 76.6937 65.5873C76.6937 64.3713 76.8595 63.2106 77.1912 62.1052C77.5228 60.9997 77.8821 59.8943 78.269 58.7888C78.7112 57.6834 79.0981 56.5227 79.4297 55.3067C79.7613 54.146 79.9272 52.8747 79.9272 51.4929Z" fill="#FDD888"/>
<path d="M87.8034 28.6103C87.8034 24.9623 87.8863 21.646 88.0522 18.6613C88.218 15.6766 88.7983 13.1341 89.7932 11.0337C90.7881 8.9334 92.3634 7.30287 94.519 6.14216C96.6746 4.98144 99.7422 4.40108 103.722 4.40108C108.088 4.40108 111.488 5.50653 113.92 7.71741C116.407 9.87303 117.65 13.2446 117.65 17.8322C117.65 19.7667 117.485 21.8671 117.153 24.1332C116.877 26.3441 116.407 28.6103 115.743 30.9317C115.08 33.1979 114.224 35.4087 113.173 37.5644C112.123 39.72 110.852 41.6269 109.36 43.285C107.867 44.9432 106.126 46.2697 104.136 47.2646C102.202 48.2595 99.9909 48.757 97.5037 48.757C95.8455 48.757 94.4637 48.4253 93.3583 47.7621C92.2528 47.0435 91.3408 46.1039 90.6223 44.9432C89.9038 43.7825 89.3511 42.4836 88.9641 41.0465C88.5772 39.6094 88.3009 38.1447 88.1351 36.6524C87.9692 35.16 87.8587 33.7229 87.8034 32.3411C87.8034 30.9593 87.8034 29.7157 87.8034 28.6103ZM90.7052 29.5223C90.7052 30.7383 90.7605 32.2306 90.871 33.9993C90.9816 35.768 91.2579 37.4814 91.7001 39.1396C92.1423 40.7425 92.8332 42.1243 93.7728 43.285C94.7124 44.3905 96.039 44.9432 97.7524 44.9432C100.737 44.9432 103.307 44.1417 105.463 42.5388C107.674 40.8807 109.442 38.808 110.769 36.3207C112.151 33.8335 113.173 31.1528 113.837 28.2786C114.5 25.4045 114.831 22.7238 114.831 20.2365C114.831 18.302 114.693 16.5333 114.417 14.9304C114.141 13.3275 113.616 11.9734 112.842 10.8679C112.068 9.70721 110.962 8.82286 109.525 8.21486C108.144 7.60687 106.375 7.30287 104.219 7.30287C100.903 7.30287 98.3328 7.9385 96.5088 9.20976C94.7401 10.481 93.4136 12.1945 92.5292 14.3501C91.6448 16.4504 91.1198 18.8271 90.9539 21.4802C90.7881 24.1332 90.7052 26.8139 90.7052 29.5223Z" fill="#FDD888"/>
<path d="M121.464 28.6103C121.464 24.9623 121.547 21.646 121.713 18.6613C121.879 15.6766 122.459 13.1341 123.454 11.0337C124.449 8.9334 126.024 7.30287 128.18 6.14216C130.335 4.98144 133.403 4.40108 137.383 4.40108C141.749 4.40108 145.148 5.50653 147.58 7.71741C150.067 9.87303 151.311 13.2446 151.311 17.8322C151.311 19.7667 151.145 21.8671 150.814 24.1332C150.537 26.3441 150.067 28.6103 149.404 30.9317C148.741 33.1979 147.884 35.4087 146.834 37.5644C145.784 39.72 144.513 41.6269 143.02 43.285C141.528 44.9432 139.787 46.2697 137.797 47.2646C135.863 48.2595 133.652 48.757 131.164 48.757C129.506 48.757 128.124 48.4253 127.019 47.7621C125.914 47.0435 125.002 46.1039 124.283 44.9432C123.564 43.7825 123.012 42.4836 122.625 41.0465C122.238 39.6094 121.962 38.1447 121.796 36.6524C121.63 35.16 121.519 33.7229 121.464 32.3411C121.464 30.9593 121.464 29.7157 121.464 28.6103ZM124.366 29.5223C124.366 30.7383 124.421 32.2306 124.532 33.9993C124.642 35.768 124.919 37.4814 125.361 39.1396C125.803 40.7425 126.494 42.1243 127.434 43.285C128.373 44.3905 129.7 44.9432 131.413 44.9432C134.398 44.9432 136.968 44.1417 139.124 42.5388C141.334 40.8807 143.103 38.808 144.43 36.3207C145.812 33.8335 146.834 31.1528 147.497 28.2786C148.161 25.4045 148.492 22.7238 148.492 20.2365C148.492 18.302 148.354 16.5333 148.078 14.9304C147.801 13.3275 147.276 11.9734 146.502 10.8679C145.729 9.70721 144.623 8.82286 143.186 8.21486C141.804 7.60687 140.036 7.30287 137.88 7.30287C134.564 7.30287 131.993 7.9385 130.17 9.20976C128.401 10.481 127.074 12.1945 126.19 14.3501C125.306 16.4504 124.78 18.8271 124.615 21.4802C124.449 24.1332 124.366 26.8139 124.366 29.5223Z" fill="#FDD888"/>
<path d="M155.125 28.6103C155.125 24.9623 155.208 21.646 155.374 18.6613C155.539 15.6766 156.12 13.1341 157.115 11.0337C158.11 8.9334 159.685 7.30287 161.84 6.14216C163.996 4.98144 167.064 4.40108 171.043 4.40108C175.41 4.40108 178.809 5.50653 181.241 7.71741C183.728 9.87303 184.972 13.2446 184.972 17.8322C184.972 19.7667 184.806 21.8671 184.474 24.1332C184.198 26.3441 183.728 28.6103 183.065 30.9317C182.402 33.1979 181.545 35.4087 180.495 37.5644C179.445 39.72 178.173 41.6269 176.681 43.285C175.189 44.9432 173.448 46.2697 171.458 47.2646C169.523 48.2595 167.312 48.757 164.825 48.757C163.167 48.757 161.785 48.4253 160.68 47.7621C159.574 47.0435 158.662 46.1039 157.944 44.9432C157.225 43.7825 156.672 42.4836 156.286 41.0465C155.899 39.6094 155.622 38.1447 155.457 36.6524C155.291 35.16 155.18 33.7229 155.125 32.3411C155.125 30.9593 155.125 29.7157 155.125 28.6103ZM158.027 29.5223C158.027 30.7383 158.082 32.2306 158.192 33.9993C158.303 35.768 158.579 37.4814 159.022 39.1396C159.464 40.7425 160.155 42.1243 161.094 43.285C162.034 44.3905 163.36 44.9432 165.074 44.9432C168.059 44.9432 170.629 44.1417 172.784 42.5388C174.995 40.8807 176.764 38.808 178.09 36.3207C179.472 33.8335 180.495 31.1528 181.158 28.2786C181.821 25.4045 182.153 22.7238 182.153 20.2365C182.153 18.302 182.015 16.5333 181.738 14.9304C181.462 13.3275 180.937 11.9734 180.163 10.8679C179.389 9.70721 178.284 8.82286 176.847 8.21486C175.465 7.60687 173.696 7.30287 171.541 7.30287C168.224 7.30287 165.654 7.9385 163.83 9.20976C162.062 10.481 160.735 12.1945 159.851 14.3501C158.966 16.4504 158.441 18.8271 158.275 21.4802C158.11 24.1332 158.027 26.8139 158.027 29.5223Z" fill="#FDD888"/>
</svg>
