<svg width="197" height="66" viewBox="0 0 197 66" fill="none" xmlns="http://www.w3.org/2000/svg">
<path d="M22.5245 46.5776C22.5245 46.2258 22.4658 45.6101 22.3486 44.7305C22.2313 43.8509 22.114 42.942 21.9967 42.0038C21.8795 41.007 21.7622 40.0688 21.6449 39.1892C21.5863 38.3097 21.5276 37.7233 21.469 37.4301C21.2931 36.4919 21.1758 35.7589 21.1172 35.2312C21.1172 34.7034 21.0879 34.293 21.0292 33.9998C20.9706 33.7066 20.7947 33.5307 20.5015 33.472C20.2669 33.3548 19.8271 33.2961 19.1821 33.2961C17.7748 33.2961 16.3968 33.5307 15.0482 33.9998C13.7581 34.4102 12.4681 34.8793 11.1781 35.4071C9.88804 35.9348 8.59801 36.4332 7.30798 36.9023C6.07659 37.3128 4.81587 37.518 3.52584 37.518C2.93946 37.518 2.35309 37.2542 1.76671 36.7264C1.23897 36.1401 0.975098 35.5244 0.975098 34.8793C0.975098 34.8207 0.975098 34.7327 0.975098 34.6155C1.03374 34.4982 1.06305 34.4102 1.06305 34.3516C4.40541 29.7779 7.45457 25.0282 10.2106 20.1026C12.9665 15.177 15.3414 10.0756 17.335 4.79816C17.1005 3.74267 17.1005 2.77515 17.335 1.89558C17.6282 1.01602 18.3612 0.576233 19.534 0.576233C20.1203 0.576233 20.5601 0.722829 20.8533 1.01602C21.1465 1.25057 21.3517 1.86626 21.469 2.86311L23.492 25.1162C23.6093 26.6407 23.7266 27.5496 23.8438 27.8428C24.0198 28.136 24.4889 28.2826 25.2511 28.2826C26.1893 28.2826 27.1569 28.1946 28.1537 28.0187C29.1506 27.7842 30.0888 27.5203 30.9683 27.2271C31.9065 26.9339 32.8154 26.6994 33.695 26.5235C34.6332 26.2889 35.5128 26.1716 36.3337 26.1716C37.096 26.1716 37.7117 26.5235 38.1808 27.2271C38.7085 27.8721 38.9724 28.5465 38.9724 29.2501C38.9724 29.6606 38.8844 30.071 38.7085 30.4815C38.5912 30.8333 38.2687 31.1265 37.741 31.3611C35.6887 31.1852 33.4604 31.1558 31.0563 31.2731C28.7108 31.3318 26.5119 31.6543 24.4595 32.2406V32.9443C24.4595 34.7621 24.6648 36.5505 25.0752 38.3097C25.4857 40.0688 25.6909 41.8866 25.6909 43.763C25.6909 44.0562 25.6909 44.4373 25.6909 44.9064C25.6909 45.3755 25.6616 45.8153 25.603 46.2258C25.5443 46.6362 25.3977 46.988 25.1632 47.2812C24.9286 47.5744 24.5475 47.721 24.0197 47.721C23.3747 47.721 22.8763 47.3399 22.5245 46.5776ZM8.18755 31.537C8.83256 31.537 9.85872 31.4783 11.266 31.3611C12.6733 31.1852 14.0513 30.9506 15.4 30.6574C16.8073 30.3056 18.0094 29.9538 19.0062 29.6019C20.0031 29.1915 20.4722 28.7517 20.4135 28.2826L18.3905 11.9226L8.18755 30.3056V31.537Z" fill="#FDD888"/>
<path d="M42.7545 26.3475C42.7545 22.4775 42.8425 18.9592 43.0184 15.7927C43.1943 12.6263 43.81 9.92896 44.8655 7.70073C45.921 5.47249 47.5921 3.74268 49.879 2.51128C52.1659 1.27989 55.4203 0.664189 59.6422 0.664189C64.2746 0.664189 67.8808 1.83695 70.4609 4.18246C73.0996 6.46933 74.4189 10.0462 74.4189 14.9132C74.4189 16.9655 74.243 19.1937 73.8912 21.5979C73.598 23.9434 73.0996 26.3475 72.3959 28.8103C71.6923 31.2145 70.7834 33.56 69.6693 35.8469C68.5552 38.1337 67.2065 40.1567 65.6233 41.9159C64.0401 43.675 62.193 45.0823 60.082 46.1378C58.0297 47.1933 55.6842 47.721 53.0455 47.721C51.2863 47.721 49.8204 47.3692 48.6476 46.6655C47.4749 45.9032 46.5073 44.9064 45.7451 43.675C44.9828 42.4436 44.3964 41.0656 43.9859 39.5411C43.5755 38.0165 43.2823 36.4626 43.1064 34.8793C42.9304 33.2961 42.8132 31.7715 42.7545 30.3056C42.7545 28.8397 42.7545 27.5203 42.7545 26.3475ZM45.833 27.3151C45.833 28.6051 45.8917 30.1883 46.0089 32.0647C46.1262 33.9411 46.4194 35.7589 46.8885 37.518C47.3576 39.2185 48.0906 40.6845 49.0874 41.9159C50.0843 43.0886 51.4916 43.675 53.3093 43.675C56.4758 43.675 59.2024 42.8248 61.4893 41.1243C63.8348 39.3651 65.7112 37.1662 67.1185 34.5275C68.5845 31.8888 69.6693 29.0449 70.3729 25.9957C71.0766 22.9465 71.4284 20.1026 71.4284 17.4639C71.4284 15.4116 71.2818 13.5352 70.9886 11.8347C70.6954 10.1342 70.1384 8.69757 69.3174 7.52481C68.4965 6.29342 67.3238 5.35521 65.7992 4.7102C64.3332 4.06518 62.4568 3.74268 60.17 3.74268C56.6517 3.74268 53.925 4.41701 51.99 5.76568C50.1136 7.11435 48.7063 8.93212 47.7681 11.219C46.8299 13.4472 46.2728 15.9687 46.0969 18.7833C45.921 21.5979 45.833 24.4418 45.833 27.3151Z" fill="#FDD888"/>
<path d="M84.7978 50.6236C84.7978 48.2781 84.5926 46.4017 84.1821 44.9944C83.8303 43.5871 83.3905 42.5023 82.8628 41.74C82.335 40.919 81.7487 40.362 81.1036 40.0688C80.4586 39.717 79.8723 39.4531 79.3445 39.2772C78.8168 39.0426 78.3477 38.7788 77.9372 38.4856C77.5854 38.1924 77.4095 37.694 77.4095 36.9903C77.4095 35.6416 77.7027 34.85 78.289 34.6155C78.9341 34.3809 79.8723 34.2636 81.1036 34.2636C82.6869 34.2636 83.9769 34.8207 84.9737 35.9348C86.0292 37.0489 86.8208 38.3976 87.3486 39.9808C87.9349 41.564 88.3161 43.2352 88.492 44.9944C88.7266 46.6949 88.8438 48.2194 88.8438 49.5681C88.8438 50.7995 88.7559 52.3241 88.58 54.1419C88.4041 55.9596 88.0522 57.7188 87.5245 59.4193C86.9967 61.1198 86.2345 62.5564 85.2376 63.7291C84.2994 64.9605 83.0094 65.5762 81.3675 65.5762C81.3675 64.2862 81.5434 63.0548 81.8953 61.8821C82.2471 60.7093 82.6282 59.5365 83.0387 58.3638C83.5078 57.191 83.9183 55.9596 84.2701 54.6696C84.6219 53.4382 84.7978 52.0895 84.7978 50.6236Z" fill="#FDD888"/>
<path d="M93.1537 26.3475C93.1537 22.4775 93.2417 18.9592 93.4176 15.7927C93.5935 12.6263 94.2092 9.92896 95.2647 7.70073C96.3202 5.47249 97.9913 3.74268 100.278 2.51128C102.565 1.27989 105.819 0.664189 110.041 0.664189C114.674 0.664189 118.28 1.83695 120.86 4.18246C123.499 6.46933 124.818 10.0462 124.818 14.9132C124.818 16.9655 124.642 19.1937 124.29 21.5979C123.997 23.9434 123.499 26.3475 122.795 28.8103C122.091 31.2145 121.183 33.56 120.068 35.8469C118.954 38.1337 117.606 40.1567 116.022 41.9159C114.439 43.675 112.592 45.0823 110.481 46.1378C108.429 47.1933 106.083 47.721 103.445 47.721C101.686 47.721 100.22 47.3692 99.0468 46.6655C97.8741 45.9032 96.9065 44.9064 96.1442 43.675C95.3819 42.4436 94.7956 41.0656 94.3851 39.5411C93.9746 38.0165 93.6815 36.4626 93.5055 34.8793C93.3296 33.2961 93.2124 31.7715 93.1537 30.3056C93.1537 28.8397 93.1537 27.5203 93.1537 26.3475ZM96.2322 27.3151C96.2322 28.6051 96.2908 30.1883 96.4081 32.0647C96.5254 33.9411 96.8186 35.7589 97.2877 37.518C97.7568 39.2185 98.4898 40.6845 99.4866 41.9159C100.483 43.0886 101.891 43.675 103.709 43.675C106.875 43.675 109.602 42.8248 111.888 41.1243C114.234 39.3651 116.11 37.1662 117.518 34.5275C118.984 31.8888 120.068 29.0449 120.772 25.9957C121.476 22.9465 121.828 20.1026 121.828 17.4639C121.828 15.4116 121.681 13.5352 121.388 11.8347C121.095 10.1342 120.538 8.69757 119.717 7.52481C118.896 6.29342 117.723 5.35521 116.198 4.7102C114.732 4.06518 112.856 3.74268 110.569 3.74268C107.051 3.74268 104.324 4.41701 102.389 5.76568C100.513 7.11435 99.1055 8.93212 98.1672 11.219C97.229 13.4472 96.672 15.9687 96.4961 18.7833C96.3202 21.5979 96.2322 24.4418 96.2322 27.3151Z" fill="#FDD888"/>
<path d="M128.864 26.3475C128.864 22.4775 128.952 18.9592 129.128 15.7927C129.304 12.6263 129.92 9.92896 130.975 7.70073C132.031 5.47249 133.702 3.74268 135.989 2.51128C138.275 1.27989 141.53 0.664189 145.752 0.664189C150.384 0.664189 153.99 1.83695 156.57 4.18246C159.209 6.46933 160.529 10.0462 160.529 14.9132C160.529 16.9655 160.353 19.1937 160.001 21.5979C159.708 23.9434 159.209 26.3475 158.506 28.8103C157.802 31.2145 156.893 33.56 155.779 35.8469C154.665 38.1337 153.316 40.1567 151.733 41.9159C150.15 43.675 148.303 45.0823 146.192 46.1378C144.139 47.1933 141.794 47.721 139.155 47.721C137.396 47.721 135.93 47.3692 134.757 46.6655C133.584 45.9032 132.617 44.9064 131.855 43.675C131.092 42.4436 130.506 41.0656 130.096 39.5411C129.685 38.0165 129.392 36.4626 129.216 34.8793C129.04 33.2961 128.923 31.7715 128.864 30.3056C128.864 28.8397 128.864 27.5203 128.864 26.3475ZM131.943 27.3151C131.943 28.6051 132.001 30.1883 132.119 32.0647C132.236 33.9411 132.529 35.7589 132.998 37.518C133.467 39.2185 134.2 40.6845 135.197 41.9159C136.194 43.0886 137.601 43.675 139.419 43.675C142.585 43.675 145.312 42.8248 147.599 41.1243C149.944 39.3651 151.821 37.1662 153.228 34.5275C154.694 31.8888 155.779 29.0449 156.483 25.9957C157.186 22.9465 157.538 20.1026 157.538 17.4639C157.538 15.4116 157.391 13.5352 157.098 11.8347C156.805 10.1342 156.248 8.69757 155.427 7.52481C154.606 6.29342 153.433 5.35521 151.909 4.7102C150.443 4.06518 148.566 3.74268 146.28 3.74268C142.761 3.74268 140.035 4.41701 138.1 5.76568C136.223 7.11435 134.816 8.93212 133.878 11.219C132.939 13.4472 132.382 15.9687 132.206 18.7833C132.031 21.5979 131.943 24.4418 131.943 27.3151Z" fill="#FDD888"/>
<path d="M164.575 26.3475C164.575 22.4775 164.662 18.9592 164.838 15.7927C165.014 12.6263 165.63 9.92896 166.686 7.70073C167.741 5.47249 169.412 3.74268 171.699 2.51128C173.986 1.27989 177.24 0.664189 181.462 0.664189C186.095 0.664189 189.701 1.83695 192.281 4.18246C194.92 6.46933 196.239 10.0462 196.239 14.9132C196.239 16.9655 196.063 19.1937 195.711 21.5979C195.418 23.9434 194.92 26.3475 194.216 28.8103C193.512 31.2145 192.603 33.56 191.489 35.8469C190.375 38.1337 189.027 40.1567 187.443 41.9159C185.86 43.675 184.013 45.0823 181.902 46.1378C179.85 47.1933 177.504 47.721 174.865 47.721C173.106 47.721 171.64 47.3692 170.468 46.6655C169.295 45.9032 168.327 44.9064 167.565 43.675C166.803 42.4436 166.216 41.0656 165.806 39.5411C165.395 38.0165 165.102 36.4626 164.926 34.8793C164.75 33.2961 164.633 31.7715 164.575 30.3056C164.575 28.8397 164.575 27.5203 164.575 26.3475ZM167.653 27.3151C167.653 28.6051 167.712 30.1883 167.829 32.0647C167.946 33.9411 168.239 35.7589 168.708 37.518C169.178 39.2185 169.911 40.6845 170.907 41.9159C171.904 43.0886 173.312 43.675 175.129 43.675C178.296 43.675 181.022 42.8248 183.309 41.1243C185.655 39.3651 187.531 37.1662 188.939 34.5275C190.404 31.8888 191.489 29.0449 192.193 25.9957C192.897 22.9465 193.248 20.1026 193.248 17.4639C193.248 15.4116 193.102 13.5352 192.809 11.8347C192.515 10.1342 191.958 8.69757 191.137 7.52481C190.317 6.29342 189.144 5.35521 187.619 4.7102C186.153 4.06518 184.277 3.74268 181.99 3.74268C178.472 3.74268 175.745 4.41701 173.81 5.76568C171.934 7.11435 170.526 8.93212 169.588 11.219C168.65 13.4472 168.093 15.9687 167.917 18.7833C167.741 21.5979 167.653 24.4418 167.653 27.3151Z" fill="#FDD888"/>
</svg>
