<svg width="68" height="64" viewBox="0 0 68 64" fill="none" xmlns="http://www.w3.org/2000/svg">
<path d="M61.7619 56.5137C61.7619 60.6311 58.393 64 54.2756 64H13.101C8.98354 64 5.61472 60.6311 5.61472 56.5137V24.697C5.61472 20.5795 8.98354 17.2107 13.101 17.2107H54.2756C58.393 17.2107 61.7619 20.5795 61.7619 24.697V56.5137Z" fill="#FDD888"/>
<path d="M67.3766 19.0824C67.3766 23.1998 64.0077 26.5686 59.8903 26.5686H7.48628C3.36883 26.5686 0 23.1998 0 19.0824C0 14.9649 3.36883 11.5961 7.48628 11.5961H59.8903C64.0077 11.5961 67.3766 14.9649 67.3766 19.0824Z" fill="#FDD888"/>
<path d="M5.61472 26.5686H61.7619V30.3117H5.61472V26.5686Z" fill="#FCAB40"/>
<path d="M35.5599 4.10974H31.8167C28.7155 4.10974 26.202 6.62326 26.202 9.72445V64H41.1746V9.72445C41.1746 6.62513 38.661 4.10974 35.5599 4.10974Z" fill="#DA2F47"/>
<path d="M29.9451 11.596C32.0039 11.596 32.3089 10.6303 30.6208 9.44932L18.0401 0.641707C16.3519 -0.539254 14.1379 -0.043288 13.116 1.74406L9.34289 8.34697C8.32101 10.1343 9.1707 11.596 11.2294 11.596H29.9451ZM37.4314 11.596C35.3727 11.596 35.0676 10.6303 36.7558 9.44932L49.3384 0.641707C51.0246 -0.539254 53.2406 -0.043288 54.2625 1.74406L58.0356 8.34509C59.0556 10.1343 58.2059 11.596 56.1471 11.596H37.4314Z" fill="#DA2F47"/>
</svg>
