<svg width="64" height="64" viewBox="0 0 64 64" fill="none" xmlns="http://www.w3.org/2000/svg">
<path d="M49.5379 29.7795C49.5379 18.6826 41.6961 12.0231 31.8899 12.0231C22.0836 12.0231 14.4054 18.6826 14.4054 29.7795C14.4054 35.9662 14.2223 41.3084 21.3334 43.8062V48.6453C21.3334 50.4835 23.0507 51.9733 24.889 51.9733C26.729 51.9733 28.4445 50.4835 28.4445 48.6453V45.1431V48.6453C28.4445 50.4835 30.1601 51.9733 32.0001 51.9733C33.8419 51.9733 35.5556 50.4835 35.5556 48.6453V45.1431V48.6453C35.5556 50.4835 37.273 51.9733 39.1112 51.9733C40.9494 51.9733 42.6667 50.4835 42.6667 48.6453V43.8062C49.7779 41.3084 49.5379 35.9662 49.5379 29.7795V29.7795Z" fill="#CCD6DD"/>
<path d="M24.2294 33.1093C27.2937 33.1093 29.7779 30.6252 29.7779 27.5609C29.7779 24.4966 27.2937 22.0125 24.2294 22.0125C21.1651 22.0125 18.681 24.4966 18.681 27.5609C18.681 30.6252 21.1651 33.1093 24.2294 33.1093Z" fill="#292F33"/>
<path d="M45.312 27.5609C45.312 30.6258 45.312 33.1093 39.7636 33.1093C34.2169 33.1093 34.2169 30.6258 34.2169 27.5609C34.2169 24.496 36.6987 22.0125 39.7636 22.0125C42.8302 22.0125 45.312 24.496 45.312 27.5609V27.5609ZM34.1102 37.616C33.8311 36.9369 32.9974 36.4391 31.9965 36.4391C30.9991 36.4391 30.1636 36.9369 29.8845 37.616C29.184 37.8116 28.6667 38.4498 28.6667 39.2124C28.6667 40.1316 29.4116 40.8765 30.3325 40.8765C31.0596 40.8765 31.6711 40.4089 31.8969 39.76C31.9307 39.76 31.9627 39.7671 31.9965 39.7671C32.0302 39.7671 32.0622 39.76 32.0978 39.76C32.3254 40.4089 32.9369 40.8765 33.6622 40.8765C34.5814 40.8765 35.3262 40.1316 35.3262 39.2124C35.3262 38.4498 34.8089 37.8151 34.1102 37.616Z" fill="#292F33"/>
<path d="M19.5556 48C19.5556 47.3476 19.6889 46.7324 19.9022 46.1547C18.1529 45.36 16.6471 44.2311 15.4524 42.6524C13.4844 44.3751 11.6071 45.9876 9.89333 47.4436C8.86222 46.6844 7.6 46.2222 6.22222 46.2222C2.78578 46.2222 0 49.0062 0 52.4444C0 55.6053 2.36444 58.1849 5.41511 58.5849C5.81511 61.6373 8.39467 64 11.5556 64C14.992 64 17.7778 61.216 17.7778 57.7778C17.7778 56.4 17.3156 55.1378 16.5582 54.1067C17.6249 52.8516 18.7733 51.5111 19.9911 50.1067C19.712 49.4596 19.5556 48.7484 19.5556 48ZM49.5502 20.4764C51.1218 19.1093 52.624 17.8187 54.0213 16.6311C55.0329 17.3476 56.2649 17.7778 57.6 17.7778C61.0382 17.7778 63.8222 14.992 63.8222 11.5556C63.8222 8.45689 61.552 5.90756 58.5867 5.43289C58.1956 2.37333 55.6107 0 52.4444 0C49.0062 0 46.2222 2.78578 46.2222 6.22222C46.2222 7.6 46.6844 8.86222 47.4436 9.89333C46.3876 11.1378 45.2516 12.4622 44.0462 13.8524C46.3573 15.4009 48.2436 17.5769 49.5502 20.4764ZM6.22222 17.7778C7.6 17.7778 8.86222 17.3156 9.89333 16.5564C11.3138 17.7636 12.8462 19.0791 14.4516 20.4747C15.7582 17.5751 17.6427 15.3991 19.9556 13.8507C18.7484 12.4622 17.6142 11.136 16.5564 9.89333C17.3156 8.86222 17.7778 7.6 17.7778 6.22222C17.7778 2.78578 14.992 0 11.5556 0C8.39467 0 5.81511 2.36444 5.41511 5.41511C2.36444 5.81511 0 8.39467 0 11.5556C0 14.992 2.78578 17.7778 6.22222 17.7778ZM57.6 46.2222C56.2631 46.2222 55.0329 46.6524 54.0196 47.3689C52.3271 45.9307 50.4818 44.3449 48.5458 42.6524C47.3511 44.2329 45.8453 45.36 44.096 46.1564C44.3111 46.7324 44.4444 47.3476 44.4444 48C44.4444 48.7484 44.288 49.4596 44.0089 50.1067C45.2267 51.5111 46.3751 52.8516 47.4418 54.1067C46.6844 55.1378 46.2222 56.4 46.2222 57.7778C46.2222 61.216 49.0062 64 52.4444 64C55.6107 64 58.1956 61.6284 58.5867 58.5671C61.552 58.0924 63.8222 55.5431 63.8222 52.4444C63.8222 49.0062 61.0382 46.2222 57.6 46.2222V46.2222Z" fill="#AAB8C2"/>
</svg>
