<svg width="66" height="64" viewBox="0 0 66 64" fill="none" xmlns="http://www.w3.org/2000/svg">
<path d="M21.0065 12.48C20.8041 12.6824 20.6505 12.9263 20.5222 13.1937L20.5078 13.1792L0.242107 58.8312L0.261982 58.8511C-0.113844 59.5793 0.514942 61.0609 1.80323 62.351C3.09152 63.6393 4.57314 64.2681 5.3013 63.8922L5.31937 63.9103L50.9713 43.6428L50.9569 43.6265C51.2225 43.5001 51.4664 43.3465 51.6706 43.1405C54.4929 40.3182 49.9161 31.1665 41.451 22.6996C32.9823 14.2326 23.8306 9.65769 21.0065 12.48V12.48Z" fill="#DD2E44"/>
<path d="M23.4891 20.6324L0.75164 57.6838L0.242107 58.8311L0.261982 58.851C-0.113844 59.5792 0.514942 61.0608 1.80323 62.3509C2.22242 62.7701 2.65787 63.0881 3.08429 63.3573L30.7165 29.6667L23.4891 20.6324Z" fill="#EA596E"/>
<path d="M41.5794 22.5586C50.0175 31.0002 54.7026 39.9983 52.0393 42.658C49.3778 45.3213 40.3797 40.638 31.9363 32.2C23.4964 23.7583 18.8131 14.7566 21.4746 12.0951C24.1379 9.43359 33.136 14.117 41.5794 22.5586V22.5586Z" fill="#A0041E"/>
<path d="M33.5894 23.5397C33.2298 23.8306 32.7601 23.9824 32.2632 23.9282C30.6948 23.7583 29.3758 23.2127 28.4525 22.3508C27.475 21.4383 26.9926 20.2133 27.1245 18.9864C27.3558 16.8327 29.5168 14.856 33.2009 15.2535C34.6338 15.407 35.2734 14.9463 35.2951 14.7259C35.3204 14.5072 34.7946 13.92 33.3617 13.7646C31.7934 13.5948 30.4744 13.0491 29.5493 12.1872C28.5718 11.2748 28.0875 10.0497 28.2212 8.82287C28.4561 6.6691 30.6153 4.6924 34.2959 5.09171C35.3402 5.20374 35.8913 4.98872 36.1244 4.84959C36.3105 4.73576 36.3846 4.62735 36.3918 4.56411C36.4135 4.34548 35.8949 3.75825 34.4585 3.60286C33.4665 3.49445 32.7474 2.60548 32.8576 1.61171C32.9642 0.619746 33.8514 -0.0975749 34.847 0.0108363C38.5275 0.406537 40.2188 2.79701 39.9857 4.95258C39.7508 7.10997 37.5916 9.08305 33.9074 8.68735C32.863 8.57352 32.3174 8.79034 32.0825 8.92947C31.8964 9.04149 31.8205 9.15171 31.8133 9.21315C31.7898 9.43358 32.312 10.019 33.7484 10.1744C37.429 10.5719 39.1202 12.9606 38.8871 15.1161C38.654 17.2699 36.4948 19.2466 32.8125 18.8473C31.7681 18.7353 31.2188 18.9521 30.9839 19.0894C30.796 19.2051 30.7237 19.3135 30.7165 19.3749C30.693 19.5935 31.2152 20.1808 32.6498 20.3361C33.64 20.4446 34.3609 21.3353 34.2507 22.3273C34.2001 22.8224 33.949 23.2506 33.5894 23.5397V23.5397Z" fill="#AA8DD8"/>
<path d="M55.4 40.2495C58.9649 39.243 61.424 40.8331 62.0095 42.92C62.5949 45.0051 61.3265 47.6449 57.7634 48.6477C56.3721 49.038 55.9547 49.7029 56.0107 49.9143C56.0721 50.1275 56.7786 50.4781 58.1663 50.086C61.7294 49.0832 64.1885 50.6732 64.7739 52.7583C65.363 54.8452 64.091 57.4814 60.526 58.486C59.1366 58.8763 58.7174 59.543 58.7788 59.7544C58.8384 59.9658 59.5431 60.3164 60.9326 59.9261C61.8902 59.6569 62.8912 60.2152 63.1604 61.1746C63.4278 62.1359 62.8695 63.1333 61.9083 63.4043C58.347 64.4071 55.886 62.8207 55.297 60.732C54.7116 58.6468 55.9818 56.0106 59.5485 55.006C60.9398 54.6139 61.3572 53.9508 61.2958 53.7376C61.2379 53.5262 60.5333 53.1739 59.1456 53.5642C55.5789 54.5688 53.1215 52.9824 52.5343 50.8918C51.9471 48.8067 53.2173 46.1705 56.7822 45.1641C58.1699 44.7756 58.5873 44.1071 58.5295 43.8975C58.468 43.6843 57.7652 43.3338 56.3757 43.724C55.4144 43.9951 54.4189 43.4349 54.1478 42.4755C53.8786 41.5179 54.4387 40.5205 55.4 40.2495V40.2495Z" fill="#77B255"/>
<path d="M41.5593 35.3764C41.0281 35.3764 40.5041 35.1433 40.1464 34.6988C39.523 33.9182 39.6513 32.7817 40.4283 32.1584C40.8221 31.8422 50.2178 24.463 63.4964 26.362C64.4847 26.5029 65.1713 27.4172 65.0304 28.4055C64.8894 29.3921 63.9824 30.0859 62.985 29.9377C51.2531 28.2718 42.7717 34.9138 42.6886 34.9807C42.3525 35.2481 41.955 35.3764 41.5593 35.3764V35.3764Z" fill="#AA8DD8"/>
<path d="M10.3965 27.8599C10.2249 27.8599 10.0496 27.8346 9.87615 27.784C8.92032 27.4967 8.37826 26.4903 8.66555 25.5345C10.7127 18.7172 12.5684 7.83816 10.2881 5.0014C10.0333 4.67978 9.64848 4.36358 8.76674 4.43043C7.07191 4.56053 7.23272 8.13629 7.23453 8.17243C7.31041 9.168 6.56238 10.0353 5.56861 10.1094C4.55857 10.1708 3.70574 9.43723 3.63166 8.44165C3.44555 5.95 4.22069 1.15099 8.49571 0.827565C10.4037 0.683017 11.9884 1.34613 13.1068 2.73741C17.3909 8.06944 13.0418 23.5271 12.1275 26.5734C11.8926 27.3558 11.1735 27.8599 10.3965 27.8599Z" fill="#77B255"/>
<path d="M46.0748 18.8256C47.5717 18.8256 48.7851 17.6122 48.7851 16.1153C48.7851 14.6185 47.5717 13.405 46.0748 13.405C44.578 13.405 43.3645 14.6185 43.3645 16.1153C43.3645 17.6122 44.578 18.8256 46.0748 18.8256Z" fill="#5C913B"/>
<path d="M3.61371 35.0873C5.6095 35.0873 7.22742 33.4694 7.22742 31.4736C7.22742 29.4778 5.6095 27.8599 3.61371 27.8599C1.61791 27.8599 0 29.4778 0 31.4736C0 33.4694 1.61791 35.0873 3.61371 35.0873Z" fill="#9266CC"/>
<path d="M58.7228 36.8942C60.2197 36.8942 61.4331 35.6808 61.4331 34.1839C61.4331 32.6871 60.2197 31.4736 58.7228 31.4736C57.226 31.4736 56.0125 32.6871 56.0125 34.1839C56.0125 35.6808 57.226 36.8942 58.7228 36.8942Z" fill="#5C913B"/>
<path d="M42.4611 58.5764C43.958 58.5764 45.1714 57.363 45.1714 55.8662C45.1714 54.3693 43.958 53.1559 42.4611 53.1559C40.9643 53.1559 39.7508 54.3693 39.7508 55.8662C39.7508 57.363 40.9643 58.5764 42.4611 58.5764Z" fill="#5C913B"/>
<path d="M50.5919 9.79138C52.5877 9.79138 54.2056 8.17347 54.2056 6.17767C54.2056 4.18188 52.5877 2.56396 50.5919 2.56396C48.5961 2.56396 46.9782 4.18188 46.9782 6.17767C46.9782 8.17347 48.5961 9.79138 50.5919 9.79138Z" fill="#FFCC4D"/>
<path d="M58.7228 17.0187C60.2197 17.0187 61.4331 15.8053 61.4331 14.3084C61.4331 12.8116 60.2197 11.5981 58.7228 11.5981C57.226 11.5981 56.0125 12.8116 56.0125 14.3084C56.0125 15.8053 57.226 17.0187 58.7228 17.0187Z" fill="#FFCC4D"/>
<path d="M53.3022 24.2462C54.7991 24.2462 56.0125 23.0328 56.0125 21.536C56.0125 20.0391 54.7991 18.8257 53.3022 18.8257C51.8054 18.8257 50.5919 20.0391 50.5919 21.536C50.5919 23.0328 51.8054 24.2462 53.3022 24.2462Z" fill="#FFCC4D"/>
<path d="M13.5514 44.1216C15.0482 44.1216 16.2617 42.9082 16.2617 41.4113C16.2617 39.9145 15.0482 38.701 13.5514 38.701C12.0545 38.701 10.8411 39.9145 10.8411 41.4113C10.8411 42.9082 12.0545 44.1216 13.5514 44.1216Z" fill="#FFCC4D"/>
</svg>
